<?xml version="1.0" encoding="UTF-8" standalone="no"?><!DOCTYPE svg PUBLIC "-//W3C//DTD SVG 1.1//EN" "http://www.w3.org/Graphics/SVG/1.1/DTD/svg11.dtd"><svg width="100%" height="100%" viewBox="0 0 417 417" version="1.1" xmlns="http://www.w3.org/2000/svg" xmlns:xlink="http://www.w3.org/1999/xlink" xml:space="preserve" xmlns:serif="http://www.serif.com/" style="fill-rule:evenodd;clip-rule:evenodd;stroke-linecap:round;stroke-linejoin:round;stroke-miterlimit:1.5;"><g id="Icon"><path d="M182.291,94.803c0,-0 0,-33.791 26.043,-33.791c26.041,-0 26.041,33.791 26.041,33.791" style="fill:none;stroke:#304b74;stroke-width:20.09px;"/><path d="M104.167,151.992c0,0 0,-58.568 104.167,-58.568c104.167,-0 104.167,58.568 104.167,58.568" style="fill:none;stroke:#304b74;stroke-width:20.09px;"/><path d="M286.805,302.099c15.339,-36.041 7.468,-88.116 44.781,-120.552c61.626,-53.571 -308.13,-53.571 -246.504,0c37.653,32.732 24.228,85.464 39.295,121.535" style="fill:none;stroke:#304b74;stroke-width:20.09px;"/><path d="M209.506,288.69l-157.423,26.785l0,61.321l157.423,19.037l0,-107.143Z" style="fill:none;stroke:#304b74;stroke-width:20.09px;"/><path d="M209.506,395.833l155.077,-19.037l0,-61.321l-155.077,-26.785l0,107.143Z" style="fill:none;stroke:#304b74;stroke-width:20.09px;"/><path d="M208.334,61.012l-104.167,-0l0,-40.179" style="fill:none;stroke:#304b74;stroke-width:20.09px;"/></g></svg>