<?xml version="1.0" encoding="utf-8"?>
<!-- Generator: Adobe Illustrator 21.1.0, SVG Export Plug-In . SVG Version: 6.00 Build 0)  -->
<svg version="1.1" id="Layer_1" xmlns="http://www.w3.org/2000/svg" xmlns:xlink="http://www.w3.org/1999/xlink" x="0px" y="0px"
	 viewBox="0 0 360 356.8" style="enable-background:new 0 0 360 356.8;" xml:space="preserve">
<style type="text/css">
	.st0{fill:#FFFFFF;}
</style>
<g>
	<path class="st0" d="M295.3,28.3c-3.7,0-7.3,0-10.9,0c-88.1,0-176.1,0-264.2,0c-6.4,0-6.6-0.2-6.6-6.6c0-5.3,0-10.7,0-16
		c0-5.3,0.5-5.7,5.9-5.7C69.7,0,119.8,0,170,0c59.3,0,118.5,0,177.8,0c6,0,5.7,0.1,7.8,5.8c2,5.4,1.2,9.1-3.1,13.5
		c-13,13.2-25.2,27-38.1,40.2c-12.5,12.9-24.6,26.1-36.9,39.1c-17.3,18.4-34.6,36.7-52,55.1c-12.8,13.6-25.6,27.2-38.5,40.8
		c-17.4,18.5-34.8,36.9-52.2,55.4c-12.3,13.1-24.7,26.1-37,39.2c-11.5,12.2-22.9,24.5-34.4,36.8c-0.3,0.4-0.6,0.8-1.3,1.8
		c2.2,0,3.8,0,5.4,0c94.4,0,188.9,0,283.3,0c1.3,0,2.6,0,3.9,0c3.4,0.1,5.3,1.5,5.1,5.3c-0.2,6,0,12-0.1,18c0,5-0.6,5.6-5.6,5.6
		c-31.4,0-62.8,0-94.2,0c-83.8,0-167.5,0-251.3,0c-1.8,0-4.1,0.9-5.4-1.2c-1.9-3-3.8-6.3-3.5-9.7c0.2-2.1,2.6-4.1,4.2-5.8
		c14.1-15,28.2-29.9,42.3-44.9c16.2-17.2,32.4-34.5,48.6-51.8c11.5-12.2,22.9-24.5,34.4-36.7c16.4-17.5,32.8-34.9,49.2-52.3
		c14.7-15.7,29.3-31.4,44-47c14.6-15.5,29.4-31,44-46.5c9.3-9.9,18.6-20,27.8-30C295,30.1,295.6,29.7,295.3,28.3z"/>
	<path class="st0" d="M76.8,174.5c-19.7,0-39.3,0-59,0c-3,0-5.3-0.7-6.7-3.6c-1.3-2.7-0.6-4.9,1.4-7.1c4.2-4.4,8.1-9.1,12.3-13.5
		C35.3,139.2,46,128.2,56.5,117C67,105.8,77.2,94.2,88,83.1c6.2-6.3,11.9-13,18.1-19.3c1-1,2.9-2.2,2.3-3.7c-0.6-1.3-2.6-0.6-4-0.6
		c-26.8,0-53.7,0-80.5,0c-8.8,0-9.8-1.1-9.2-9.9c0.3-4.7,1.5-5.9,6.3-5.9c37.8,0,75.5,0,113.3-0.1c3,0,4.6,1.3,5.7,3.7
		c1.2,2.5,1.5,5-0.7,7.2c-4,4.2-7.9,8.6-12,12.7c-14.9,15-28.8,31-43.5,46.1c-9.2,9.4-17.9,19.2-27.1,28.5
		c-4.3,4.4-8.3,8.9-12.6,13.3c-1.9,1.9-1.2,2.9,1,3.3c1.3,0.2,2.6,0.1,3.9,0.1c28.1,0,56.3,0,84.4,0c2.8,0,6.2-0.5,7.6,2.5
		c1.6,3.6,1.4,7.7-0.1,11.4c-0.9,2.2-3.2,1.8-5.2,1.8C116.2,174.5,96.5,174.5,76.8,174.5C76.8,174.5,76.8,174.5,76.8,174.5z"/>
	<path class="st0" d="M257.6,297.1c2,0,3.2,0,4.5,0c30.3,0,60.7,0,91,0c5.6,0,6,0.4,6.1,6c0,1,0,2.1,0,3.1c0.3,3.7-1.4,5.1-5.1,5.1
		c-39.6-0.1-79.2-0.1-118.8,0c-2.4,0-4.3-0.3-5.3-3c-0.9-2.5-0.8-4.3,1.1-6.3c16.9-17.9,33.7-35.8,50.6-53.8
		c15.3-16.3,30.6-32.7,45.9-49c0.6-0.6,1.4-1.1,1.5-2.3c-1.1-1.1-2.4-0.5-3.6-0.5c-28.4,0-56.8,0-85.2,0c-5.9,0-6.3-0.4-6.3-6.1
		c0-1.4,0-2.9,0-4.3c0.1-2.3,1.3-3.6,3.6-3.7c1.6,0,3.1,0,4.7,0c36.3,0,72.7,0,109,0c2.3,0,4.9-0.6,6,2.4c1.2,3.1,1.1,5.6-1.6,8.4
		c-16.2,16.7-32.2,33.6-48.2,50.6C291.1,261.1,274.7,278.8,257.6,297.1z"/>
</g>
</svg>
