<?xml version="1.0" encoding="UTF-8" standalone="no"?>
<!DOCTYPE svg PUBLIC "-//W3C//DTD SVG 1.1//EN" "http://www.w3.org/Graphics/SVG/1.1/DTD/svg11.dtd">
<svg width="100%" height="100%" viewBox="0 0 256 256" version="1.1" xmlns="http://www.w3.org/2000/svg" xmlns:xlink="http://www.w3.org/1999/xlink" xml:space="preserve" xmlns:serif="http://www.serif.com/" style="fill-rule:evenodd;clip-rule:evenodd;stroke-linecap:round;stroke-linejoin:round;stroke-miterlimit:1.5;">
	<rect x="0" y="0" width="256" height="256" style="fill:#1d1d1d;"/>
	<g>
		<path id="progress-background" d="M41.307,186.417c-12.667,-18.147 -20.099,-40.212 -20.099,-64c0,-61.815 50.186,-112 112,-112c61.815,-0 112,50.185 112,112c0,23.788 -7.432,45.853 -20.099,64" style="fill:none;stroke:#2f2f2f;stroke-width:20.83px;"/>
		<g id="gradient">
			<path d="M49.849,180.454c-11.487,-16.455 -18.224,-36.466 -18.224,-58.037c0,-56.066 45.518,-101.584 101.583,-101.584c5.749,0 10.417,-4.667 10.417,-10.416c0,-5.749 -4.668,-10.417 -10.417,-10.417c-67.563,0 -122.416,54.853 -122.416,122.417c-0,26.004 8.127,50.125 21.974,69.962c3.29,4.714 9.789,5.87 14.504,2.579c4.714,-3.291 5.87,-9.789 2.579,-14.504Z" style="fill:url(#_Linear1);"/>
			<circle cx="133.208" cy="122.417" r="80" style="fill:url(#_Linear2);"/>
		</g>
		<path id="logo" d="M175.658,82.134l-84.9,-0l4.5,51.3l58.8,-0l-2.1,21.9l-18.9,5.1l-18.9,-5.1l-1.2,-13.5l-16.8,-0l2.1,26.7l34.8,9.6l34.8,-9.6l4.8,-52.2l-61.8,-0l-1.5,-17.4l64.8,-0l1.5,-16.8Z" style="fill:#fff;"/>
	</g>
	<text x="87.9px" y="240px" style="font-family:'FuturaBT-Medium', 'Futura Md BT', sans-serif;font-size:25px;fill:#fff;">HTML5</text>
		<defs>
			<linearGradient id="_Linear1" x1="0" y1="0" x2="1" y2="0" gradientUnits="userSpaceOnUse" gradientTransform="matrix(202.417,0,0,202.417,10.7917,117.208)">
				<stop offset="0" style="stop-color:#f27520;stop-opacity:1"/>
				<stop offset="1" style="stop-color:#ae281c;stop-opacity:1"/>
			</linearGradient>
			<linearGradient id="_Linear2" x1="0" y1="0" x2="1" y2="0" gradientUnits="userSpaceOnUse" gradientTransform="matrix(144.583,0,0,144.583,45.7679,107.268)">
				<stop offset="0" style="stop-color:#f27520;stop-opacity:1"/>
				<stop offset="1" style="stop-color:#ae281c;stop-opacity:1"/>
			</linearGradient>
		</defs>
	</svg>
