<?xml version="1.0" encoding="UTF-8" standalone="no"?>
<!DOCTYPE svg PUBLIC "-//W3C//DTD SVG 1.1//EN" "http://www.w3.org/Graphics/SVG/1.1/DTD/svg11.dtd">
<svg width="100%" height="100%" viewBox="0 0 1000 1000" version="1.1" xmlns="http://www.w3.org/2000/svg" xmlns:xlink="http://www.w3.org/1999/xlink" xml:space="preserve" xmlns:serif="http://www.serif.com/" style="fill-rule:evenodd;clip-rule:evenodd;stroke-linejoin:round;stroke-miterlimit:2;">
	<g id="Logo">
		<path d="M500,200l-180,0c0,0 -0,-60 -0,-60c-0,-11.038 -8.962,-20 -20,-20c-11.038,0 -20,8.962 -20,20l0,80c0,11.046 8.954,20 20,20l200,0c11.038,0 20,-8.962 20,-20c-0,-11.038 -8.962,-20 -20,-20Z" style="fill:#fff;"/>
		<path id="Topper" d="M440,300c0,-0 0,-80 60,-80c60,-0 60,80 60,80"/>
		<clipPath id="_clip1">
			<path d="M440,300c0,-0 0,-80 60,-80c60,-0 60,80 60,80"/>
		</clipPath>
		<g clip-path="url(#_clip1)">
			<path id="Shading" d="M541.658,240l-441.658,-40l-0,600l400,40l-0,-180c-77.326,-57.995 -61.225,-209.416 -132.306,-291.717c-2.458,-2.846 -5.02,-5.609 -7.694,-8.283c-0,-0 15.658,31.741 40,0c60,-78.239 120,-20 158.541,-76.032l-78.541,-3.968c-0,-20 20,-40 61.658,-40Z" style="fill:#fff;fill-opacity:0.25;"/>
		</g>
		<path d="M460,300c-0,0 0.042,-16.485 6.227,-32.978c4.915,-13.106 14.113,-27.022 33.773,-27.022c19.66,-0 28.858,13.916 33.773,27.022c6.185,16.493 6.227,32.978 6.227,32.978c0,11.038 8.962,20 20,20c11.038,-0 20,-8.962 20,-20c-0,-0 0.042,-23.515 -8.773,-47.022c-10.087,-26.899 -30.879,-52.978 -71.227,-52.978c-40.348,-0 -61.14,26.079 -71.227,52.978c-8.815,23.507 -8.773,47.022 -8.773,47.022c-0,11.038 8.962,20 20,20c11.038,0 20,-8.962 20,-20Z" style="fill:#fff;"/>
		<path id="Lid" d="M300,400c-0,0 0,-120 200,-120c200,-0 200,120 200,120"/>
		<clipPath id="_clip2">
			<path d="M300,400c-0,0 0,-120 200,-120c200,-0 200,120 200,120"/>
		</clipPath>
		<g clip-path="url(#_clip2)">
			<path id="Shading1" serif:id="Shading" d="M541.658,240l-441.658,-40l-0,600l400,40l-0,-180c-77.326,-57.995 -61.225,-209.416 -132.306,-291.717c-2.458,-2.846 24.482,1.954 32.306,-8.283c59.872,-78.336 120,-20 158.541,-76.032l-78.541,-3.968c-0,-20 20,-40 61.658,-40Z" style="fill:#fff;fill-opacity:0.25;"/>
		</g>
		<path d="M320,400c-0,0 0.891,-34.3 35.694,-62.143c26.459,-21.167 70.809,-37.857 144.306,-37.857c73.497,0 117.847,16.69 144.306,37.857c34.803,27.843 35.694,62.143 35.694,62.143c0,11.038 8.962,20 20,20c11.038,-0 20,-8.962 20,-20c-0,-0 0.597,-36.525 -29.636,-72.804c-27.28,-32.736 -81.242,-67.196 -190.364,-67.196c-109.122,0 -163.084,34.46 -190.364,67.196c-30.233,36.279 -29.636,72.804 -29.636,72.804c-0,11.038 8.962,20 20,20c11.038,0 20,-8.962 20,-20Z" style="fill:#fff;"/>
		<path id="Bowl" d="M500,760c236.643,0 121.678,-220 240,-320c59.161,-50 -90.42,-80 -240,-80c-149.58,0 -299.161,30 -240,80c118.322,100 -22.698,320 240,320Z"/>
		<clipPath id="_clip3">
			<path d="M500,760c236.643,0 121.678,-220 240,-320c59.161,-50 -90.42,-80 -240,-80c-149.58,0 -299.161,30 -240,80c118.322,100 -22.698,320 240,320Z"/>
		</clipPath>
		<g clip-path="url(#_clip3)">
			<path id="Shading2" serif:id="Shading" d="M541.658,240l-441.658,-40l0,600l400,40l0,-180c-77.326,-57.995 -61.225,-209.416 -132.306,-291.717c-2.458,-2.846 -5.02,-5.609 -7.694,-8.283c0,-0 15.658,31.741 40,0c60,-78.239 120,-20 158.541,-76.032l-78.541,-3.968c0,-20 20,-40 61.658,-40Z" style="fill:#fff;fill-opacity:0.25;"/>
		</g>
		<path d="M500,780c65.928,0 107.032,-16.429 134.166,-41.154c27.332,-24.907 40.917,-58.948 49.689,-96.834c7.755,-33.491 11.802,-70.09 21.287,-104.511c8.503,-30.854 21.457,-59.989 47.768,-82.226c14.666,-12.395 20.013,-24.975 20.319,-35.827c0.343,-12.148 -5.239,-24.219 -18.365,-34.514c-11.467,-8.995 -30.185,-17.257 -54.3,-23.803c-50.047,-13.585 -125.298,-21.131 -200.564,-21.131c-75.266,0 -150.517,7.546 -200.564,21.131c-24.115,6.546 -42.833,14.808 -54.3,23.803c-13.126,10.295 -18.708,22.366 -18.365,34.514c0.306,10.852 5.653,23.432 20.319,35.827c25.959,21.94 37.237,50.71 43.839,81.152c7.478,34.477 9.109,71.133 15.258,104.679c7.034,38.377 19.943,72.833 49.019,98.062c28.181,24.454 72.413,40.832 144.794,40.832Zm232.577,-361.3c-1.1,1.451 -3.286,4.164 -5.487,6.025c-51.089,43.178 -63.307,106.46 -74.22,167.601c-8.238,46.147 -14.986,91.063 -48.085,119.096c-21.641,18.328 -54.361,28.578 -104.785,28.578c-56.77,0 -92.877,-10.321 -116.023,-28.91c-34.453,-27.669 -38.732,-72.077 -44.181,-117.625c-7.365,-61.574 -15.435,-125.256 -66.886,-168.74c-2.201,-1.861 -4.387,-4.574 -5.487,-6.025c0.659,-0.713 1.594,-1.661 2.4,-2.294c3.593,-2.818 8.349,-5.367 14.003,-7.828c43.054,-18.741 129.652,-28.578 216.174,-28.578c86.522,0 173.12,9.837 216.174,28.578c5.654,2.461 10.41,5.01 14.003,7.828c0.806,0.633 1.741,1.581 2.4,2.294Z" style="fill:#fff;"/>
		<g id="Base">
			<path d="M500,660l0,180l-300,-40l0,-100l300,-40Z"/>
			<clipPath id="_clip4">
				<path d="M500,660l0,180l-300,-40l0,-100l300,-40Z"/>
			</clipPath>
			<g clip-path="url(#_clip4)">
				<path id="Shading3" serif:id="Shading" d="M541.658,240l-441.658,-40l0,600l400,40l0,-180c-77.326,-57.995 -61.225,-209.416 -132.306,-291.717c-2.458,-2.846 -5.02,-5.609 -7.694,-8.283c0,0 15.658,31.741 40,0c60,-78.239 120,-20 158.541,-76.032l-78.541,-3.968c0,-20 20,-40 61.658,-40Z" style="fill:#fff;fill-opacity:0.25;"/>
			</g>
			<path d="M520,660c0,-5.765 -2.488,-11.25 -6.826,-15.048c-4.337,-3.797 -10.103,-5.539 -15.817,-4.777l-300,40c-9.936,1.325 -17.357,9.801 -17.357,19.825l0,100c0,10.024 7.421,18.5 17.357,19.825l300,40c5.714,0.762 11.48,-0.98 15.817,-4.777c4.338,-3.798 6.826,-9.283 6.826,-15.048l0,-180Zm-40,22.844l0,134.312c0,0 -260,-34.666 -260,-34.666c0,-0 0,-64.98 0,-64.98l260,-34.666Z" style="fill:#fff;"/>
			<path d="M500,660l0,180l300,-40l-0,-100l-300,-40Z"/>
			<path d="M502.643,640.175c-5.714,-0.762 -11.48,0.98 -15.817,4.777c-4.338,3.798 -6.826,9.283 -6.826,15.048l0,180c0,5.765 2.488,11.25 6.826,15.048c4.337,3.797 10.103,5.539 15.817,4.777l300,-40c9.936,-1.325 17.357,-9.801 17.357,-19.825l-0,-100c-0,-10.024 -7.421,-18.5 -17.357,-19.825l-300,-40Zm17.357,42.669l260,34.666c-0,0 -0,64.98 -0,64.98c0,-0 -260,34.666 -260,34.666l-0,-134.312Z" style="fill:#fff;"/>
		</g>
	</g>
</svg>
