<?xml version="1.0" encoding="UTF-8" standalone="no"?><!DOCTYPE svg PUBLIC "-//W3C//DTD SVG 1.1//EN" "http://www.w3.org/Graphics/SVG/1.1/DTD/svg11.dtd"><svg width="100%" height="100%" viewBox="0 0 417 417" version="1.1" xmlns="http://www.w3.org/2000/svg" xmlns:xlink="http://www.w3.org/1999/xlink" xml:space="preserve" xmlns:serif="http://www.serif.com/" style="fill-rule:evenodd;clip-rule:evenodd;stroke-linecap:round;stroke-linejoin:round;stroke-miterlimit:1.5;"><g><ellipse id="icon-background" cx="206.132" cy="233.37" rx="161.953" ry="166.687" style="fill:#fff;"/><g id="Icon"><path d="M254.933,281.064c9.539,-22.428 4.644,-54.834 27.849,-75.019c38.325,-33.337 -191.625,-33.337 -153.3,-0c23.416,20.369 15.067,53.184 24.437,75.631" style="fill:none;stroke:#345588;stroke-width:12.5px;"/><path d="M141.351,187.653c-0,-0 -0,-36.447 64.781,-36.447c64.781,-0 64.781,36.447 64.781,36.447" style="fill:none;stroke:#345588;stroke-width:12.5px;"/><path d="M189.936,152.064c0,0 0,-21.028 16.196,-21.028c16.195,-0 16.195,21.028 16.195,21.028" style="fill:none;stroke:#345588;stroke-width:12.5px;"/><path d="M206.861,272.72l-97.901,16.668l0,38.16l97.901,11.847l0,-66.675Z" style="fill:none;stroke:#345588;stroke-width:12.5px;"/><path d="M206.861,339.395l96.442,-11.847l0,-38.16l-96.442,-16.668l0,66.675Z" style="fill:none;stroke:#345588;stroke-width:12.5px;"/><path d="M206.132,131.036l-64.781,-0l-0,-25.003" style="fill:none;stroke:#345588;stroke-width:12.5px;"/></g><g id="icon-textarea" transform="matrix(22.7,0,0,23.3636,-537.257,-47.2759)"><g transform="matrix(0.498008,-0.867172,0.867172,0.498008,5.44155,26.6536)"><g transform="matrix(2.14008,0,0,2.14008,25.7423,8.62674)"><path d="M0.179,-0l0,-0.546l-0.16,0l0,-0.169l0.515,0l0,0.169l-0.16,0l0,0.546l-0.195,-0Z" style="fill:#fff;fill-rule:nonzero;"/></g></g><g transform="matrix(0.648574,-0.761152,0.761152,0.648574,3.47713,22.6942)"><g transform="matrix(2.14008,0,0,2.14008,26.3151,7.58154)"><path d="M0.076,-0l0,-0.715l0.195,0l-0,0.278l0.26,-0l-0,-0.278l0.195,0l0,0.715l-0.195,-0l-0,-0.291l-0.26,-0l-0,0.291l-0.195,-0Z" style="fill:#fff;fill-rule:nonzero;"/></g></g><g transform="matrix(0.779694,-0.62616,0.62616,0.779694,2.10937,18.5707)"><g transform="matrix(2.14008,0,0,2.14008,27.4459,6.28772)"><path d="M0.076,-0l0,-0.715l0.438,0l0,0.157l-0.248,-0l0,0.124l0.234,-0l0,0.153l-0.234,0l0,0.121l0.248,-0l0,0.16l-0.438,-0Z" style="fill:#fff;fill-rule:nonzero;"/></g></g><g transform="matrix(0.908877,-0.417064,0.417064,0.908877,0.48533,12.5476)"><g transform="matrix(2.14008,0,0,2.14008,28.9575,5.16313)"><path d="M0.594,-0.687l0,0.213c-0.026,-0.03 -0.053,-0.051 -0.08,-0.065c-0.026,-0.014 -0.055,-0.021 -0.085,-0.021c-0.056,-0 -0.101,0.019 -0.136,0.057c-0.034,0.039 -0.052,0.088 -0.052,0.15c0,0.057 0.018,0.105 0.053,0.143c0.036,0.037 0.081,0.056 0.135,0.056c0.03,0 0.059,-0.007 0.085,-0.021c0.027,-0.013 0.054,-0.035 0.08,-0.065l0,0.213c-0.031,0.015 -0.061,0.026 -0.092,0.034c-0.031,0.007 -0.062,0.011 -0.093,0.011c-0.039,0 -0.075,-0.005 -0.108,-0.014c-0.033,-0.009 -0.063,-0.023 -0.091,-0.042c-0.053,-0.036 -0.094,-0.081 -0.122,-0.135c-0.028,-0.055 -0.042,-0.116 -0.042,-0.184c-0,-0.055 0.009,-0.104 0.027,-0.149c0.017,-0.045 0.044,-0.085 0.08,-0.122c0.034,-0.035 0.072,-0.061 0.114,-0.078c0.043,-0.017 0.09,-0.026 0.142,-0.026c0.031,0 0.062,0.004 0.093,0.011c0.031,0.008 0.061,0.019 0.092,0.034Z" style="fill:#fff;fill-rule:nonzero;"/></g></g><g transform="matrix(0.969841,-0.24374,0.24374,0.969841,-0.208782,7.49463)"><g transform="matrix(2.14008,0,0,2.14008,30.1804,4.59097)"><path d="M0.265,-0.267l0.194,-0l-0.073,-0.236c-0.002,-0.007 -0.005,-0.019 -0.009,-0.035c-0.004,-0.016 -0.009,-0.036 -0.015,-0.061c-0.004,0.017 -0.009,0.034 -0.013,0.05c-0.004,0.016 -0.008,0.031 -0.012,0.046l-0.072,0.236Zm-0.273,0.267l0.247,-0.715l0.244,0l0.247,0.715l-0.194,-0l-0.036,-0.128l-0.277,0l-0.037,0.128l-0.194,-0Z" style="fill:#fff;fill-rule:nonzero;"/></g></g><g transform="matrix(0.997786,-0.0665006,0.0665006,0.997786,-0.210905,2.11654)"><g transform="matrix(2.14008,0,0,2.14008,31.6866,4.22623)"><path d="M0.076,-0l0,-0.715l0.438,0l0,0.157l-0.248,-0l0,0.124l0.234,-0l0,0.153l-0.234,0l0,0.281l-0.19,-0Z" style="fill:#fff;fill-rule:nonzero;"/></g></g><g transform="matrix(0.996802,0.0799131,-0.0799131,0.996802,0.436021,-2.61191)"><g transform="matrix(2.14008,0,0,2.14008,32.8501,4.14151)"><path d="M0.076,-0l0,-0.715l0.438,0l0,0.157l-0.248,-0l0,0.124l0.234,-0l0,0.153l-0.234,0l0,0.281l-0.19,-0Z" style="fill:#fff;fill-rule:nonzero;"/></g></g><g transform="matrix(0.973971,0.226671,-0.226671,0.973971,1.84351,-7.5997)"><g transform="matrix(2.14008,0,0,2.14008,34.0129,4.22728)"><path d="M0.076,-0l0,-0.715l0.438,0l0,0.157l-0.248,-0l0,0.124l0.234,-0l0,0.153l-0.234,0l0,0.121l0.248,-0l0,0.16l-0.438,-0Z" style="fill:#fff;fill-rule:nonzero;"/></g></g><g transform="matrix(0.938412,0.345517,-0.345517,0.938412,3.72727,-11.8816)"><g transform="matrix(2.14008,0,0,2.14008,35.1927,4.5145)"><rect x="0.081" y="-0.715" width="0.197" height="0.715" style="fill:#fff;fill-rule:nonzero;"/></g></g><g transform="matrix(0.868673,0.495386,-0.495386,0.868673,7.06745,-17.1778)"><g transform="matrix(2.14008,0,0,2.14008,35.9325,4.74086)"><path d="M0.076,-0l0,-0.715l0.188,0l0.27,0.368c0.005,0.007 0.014,0.022 0.026,0.045c0.012,0.023 0.025,0.05 0.039,0.081c-0.004,-0.03 -0.007,-0.056 -0.008,-0.079c-0.002,-0.023 -0.003,-0.044 -0.003,-0.062l-0,-0.353l0.187,0l-0,0.715l-0.187,-0l-0.27,-0.369c-0.006,-0.008 -0.014,-0.023 -0.026,-0.045c-0.012,-0.023 -0.025,-0.05 -0.039,-0.08c0.004,0.03 0.007,0.056 0.008,0.079c0.002,0.024 0.003,0.044 0.003,0.062l0,0.353l-0.188,-0Z" style="fill:#fff;fill-rule:nonzero;"/></g></g><g transform="matrix(0.755321,0.655355,-0.655355,0.755321,12.8932,-23.1921)"><g transform="matrix(2.14008,0,0,2.14008,37.5058,5.67065)"><path d="M0.076,-0l0,-0.715l0.438,0l0,0.157l-0.248,-0l0,0.124l0.234,-0l0,0.153l-0.234,0l0,0.121l0.248,-0l0,0.16l-0.438,-0Z" style="fill:#fff;fill-rule:nonzero;"/></g></g><g transform="matrix(0.632828,0.774292,-0.774292,0.632828,19.1117,-27.3898)"><g transform="matrix(2.14008,0,0,2.14008,38.4357,6.45655)"><path d="M0.076,-0l0,-0.715l0.204,0c0.08,0 0.135,0.004 0.167,0.011c0.031,0.007 0.058,0.02 0.081,0.037c0.026,0.02 0.045,0.044 0.059,0.075c0.014,0.03 0.021,0.063 0.021,0.1c-0,0.055 -0.014,0.1 -0.041,0.135c-0.027,0.034 -0.067,0.058 -0.119,0.069l0.195,0.288l-0.22,-0l-0.164,-0.28l-0,0.28l-0.183,-0Zm0.183,-0.377l0.036,0c0.042,0 0.073,-0.007 0.092,-0.021c0.019,-0.015 0.029,-0.037 0.029,-0.068c0,-0.036 -0.009,-0.061 -0.027,-0.076c-0.018,-0.015 -0.049,-0.023 -0.091,-0.023l-0.039,0l-0,0.188Z" style="fill:#fff;fill-rule:nonzero;"/></g></g><g transform="matrix(0.50389,0.863768,-0.863768,0.50389,25.9942,-30.222)"><g transform="matrix(2.14008,0,0,2.14008,39.3066,7.51804)"><path d="M0.203,-0l0,-0.326l-0.25,-0.389l0.224,0l0.096,0.184c0.001,0.001 0.002,0.003 0.003,0.006c0.01,0.019 0.017,0.037 0.021,0.055c0.003,-0.016 0.01,-0.034 0.021,-0.053c0.002,-0.004 0.003,-0.006 0.004,-0.008l0.095,-0.184l0.224,0l-0.25,0.389l0,0.326l-0.188,0Z" style="fill:#fff;fill-rule:nonzero;"/></g></g></g></g></svg>