<?xml version="1.0" encoding="UTF-8" standalone="no"?><!DOCTYPE svg PUBLIC "-//W3C//DTD SVG 1.1//EN" "http://www.w3.org/Graphics/SVG/1.1/DTD/svg11.dtd"><svg width="100%" height="100%" viewBox="0 0 417 417" version="1.1" xmlns="http://www.w3.org/2000/svg" xmlns:xlink="http://www.w3.org/1999/xlink" xml:space="preserve" xmlns:serif="http://www.serif.com/" style="fill-rule:evenodd;clip-rule:evenodd;stroke-linecap:round;stroke-linejoin:round;stroke-miterlimit:1.5;"><g id="Icon"><path d="M182.291,94.803c0,-0 0,-33.791 26.043,-33.791c26.041,-0 26.041,33.791 26.041,33.791" style="fill:none;"/><clipPath id="_clip1"><path d="M182.291,94.803c0,-0 0,-33.791 26.043,-33.791c26.041,-0 26.041,33.791 26.041,33.791"/></clipPath><g clip-path="url(#_clip1)"><path d="M217.218,72.894l-46.225,-27.617l-0,45.828l27.354,2.65c0.357,-11.759 9.875,-21.291 18.871,-20.861Z" style="fill:#fff;fill-opacity:0.25;"/></g><path d="M182.291,94.803c0,-0 0,-33.791 26.043,-33.791c26.041,-0 26.041,33.791 26.041,33.791" style="fill:none;stroke:#fff;stroke-width:20.09px;"/><path d="M104.167,151.992c0,0 0,-58.568 104.167,-58.568c104.167,-0 104.167,58.568 104.167,58.568" style="fill:none;"/><clipPath id="_clip2"><path d="M104.167,151.992c0,0 0,-58.568 104.167,-58.568c104.167,-0 104.167,58.568 104.167,58.568"/></clipPath><g clip-path="url(#_clip2)"><path d="M241.126,87.401l-187.343,-35.199l0,334.821l157.423,0l-72.158,-235.031c19.744,-52.833 51.57,-18.297 102.078,-64.591Z" style="fill:#fff;fill-opacity:0.25;"/></g><path d="M104.167,151.992c0,0 0,-58.568 104.167,-58.568c104.167,-0 104.167,58.568 104.167,58.568" style="fill:none;stroke:#fff;stroke-width:20.09px;"/><path d="M286.805,302.099c15.339,-36.041 7.468,-88.116 44.781,-120.552c61.626,-53.571 -308.13,-53.571 -246.504,0c37.653,32.732 24.228,85.464 39.295,121.535" style="fill:none;"/><clipPath id="_clip3"><path d="M286.805,302.099c15.339,-36.041 7.468,-88.116 44.781,-120.552c61.626,-53.571 -308.13,-53.571 -246.504,0c37.653,32.732 24.228,85.464 39.295,121.535"/></clipPath><g clip-path="url(#_clip3)"><path d="M211.206,70.936l-157.423,-0l1.2,232.146l157.401,-13.052c0,0 -24.124,-98.329 -71.874,-144.874l70.696,-74.22Z" style="fill:#fff;fill-opacity:0.25;"/></g><path d="M286.805,302.099c15.339,-36.041 7.468,-88.116 44.781,-120.552c61.626,-53.571 -308.13,-53.571 -246.504,0c37.653,32.732 24.228,85.464 39.295,121.535" style="fill:none;stroke:#fff;stroke-width:20.09px;"/><path d="M209.506,288.69l-157.423,26.785l0,61.321l157.423,19.037l0,-107.143Z" style="fill:none;"/><clipPath id="_clip4"><path d="M209.506,288.69l-157.423,26.785l0,61.321l157.423,19.037l0,-107.143Z"/></clipPath><g clip-path="url(#_clip4)"><path d="M210.033,61.843l-157.423,-0l-0,334.821l157.423,0c-4.997,-109.108 -2.955,-221.737 -0,-334.821Z" style="fill:#fff;fill-opacity:0.25;"/></g><path d="M209.506,288.69l-157.423,26.785l0,61.321l157.423,19.037l0,-107.143Z" style="fill:none;stroke:#fff;stroke-width:20.09px;"/><path d="M209.506,395.833l155.077,-19.037l0,-61.321l-155.077,-26.785l0,107.143Z" style="fill:none;stroke:#fff;stroke-width:20.09px;"/><path d="M208.334,61.012l-104.167,-0l0,-40.179" style="fill:none;stroke:#fff;stroke-width:20.09px;"/></g></svg>