<?xml version="1.0" encoding="UTF-8" standalone="no"?><!DOCTYPE svg PUBLIC "-//W3C//DTD SVG 1.1//EN" "http://www.w3.org/Graphics/SVG/1.1/DTD/svg11.dtd"><svg width="100%" height="100%" viewBox="0 0 42 42" version="1.1" xmlns="http://www.w3.org/2000/svg" xmlns:xlink="http://www.w3.org/1999/xlink" xml:space="preserve" xmlns:serif="http://www.serif.com/" style="fill-rule:evenodd;clip-rule:evenodd;stroke-linecap:round;stroke-linejoin:round;stroke-miterlimit:1.5;"><g id="Icon"><path d="M19.155,11.061c0,0 0,-2.628 2.026,-2.628c2.025,0 2.025,2.628 2.025,2.628" style="fill:none;stroke:#1d1d1d;stroke-width:1.67px;"/><path d="M13.079,15.509c-0,0 -0,-4.555 8.102,-4.555c8.101,0 8.101,4.555 8.101,4.555" style="fill:none;stroke:#1d1d1d;stroke-width:1.67px;"/><path d="M27.284,27.184c1.193,-2.803 0.581,-6.853 3.483,-9.376c4.793,-4.166 -23.966,-4.166 -19.173,0c2.929,2.546 1.885,6.647 3.057,9.453" style="fill:none;stroke:#1d1d1d;stroke-width:1.67px;"/><path d="M21.272,26.142l-12.244,2.083l-0,4.769l12.244,1.481l-0,-8.333Z" style="fill:none;stroke:#1d1d1d;stroke-width:1.67px;"/><path d="M21.272,34.475l12.061,-1.481l0,-4.769l-12.061,-2.083l-0,8.333Z" style="fill:none;stroke:#1d1d1d;stroke-width:1.67px;"/><path d="M21.181,8.433l-8.102,0l-0,-3.125" style="fill:none;stroke:#1d1d1d;stroke-width:1.67px;"/></g><path d="M20.833,0c11.499,0 20.834,9.335 20.834,20.833c-0,11.499 -9.335,20.834 -20.834,20.834c-11.498,-0 -20.833,-9.335 -20.833,-20.834c0,-11.498 9.335,-20.833 20.833,-20.833Zm0,1.667c10.579,-0 19.167,8.588 19.167,19.166c0,10.579 -8.588,19.167 -19.167,19.167c-10.578,0 -19.166,-8.588 -19.166,-19.167c-0,-10.578 8.588,-19.166 19.166,-19.166Z" style="fill:#1d1d1d;"/></svg>