<?xml version="1.0" encoding="UTF-8" standalone="no"?><!DOCTYPE svg PUBLIC "-//W3C//DTD SVG 1.1//EN" "http://www.w3.org/Graphics/SVG/1.1/DTD/svg11.dtd"><svg width="100%" height="100%" viewBox="0 0 417 417" version="1.1" xmlns="http://www.w3.org/2000/svg" xmlns:xlink="http://www.w3.org/1999/xlink" xml:space="preserve" xmlns:serif="http://www.serif.com/" style="fill-rule:evenodd;clip-rule:evenodd;stroke-linecap:round;stroke-linejoin:round;stroke-miterlimit:1.5;"><g id="Bean"><g><path d="M245.833,389.432c-11.729,4.146 -24.351,6.401 -37.499,6.401l-0.073,0c-62.092,0 -112.428,-50.335 -112.428,-112.428l0,-150.144c0,-48.97 31.309,-90.627 75,-106.047c0,-0 -37.5,143.619 37.505,181.119c74.997,37.497 37.495,181.099 37.495,181.099Z" style="fill:#304b74;fill-opacity:0.25;stroke:#304b74;stroke-width:37.5px;"/><path d="M170.833,27.235c11.729,-4.146 24.351,-6.402 37.5,-6.402l0.073,0c62.092,0 112.427,50.336 112.427,112.428l0,150.144c0,48.97 -31.308,90.628 -75,106.048c0,-0 37.5,-143.62 -37.504,-181.12c-74.998,-37.496 -37.496,-181.098 -37.496,-181.098Z" style="fill:none;stroke:#304b74;stroke-width:37.5px;"/></g></g></svg>