<?xml version="1.0" encoding="UTF-8" standalone="no"?><!DOCTYPE svg PUBLIC "-//W3C//DTD SVG 1.1//EN" "http://www.w3.org/Graphics/SVG/1.1/DTD/svg11.dtd"><svg width="100%" height="100%" viewBox="0 0 359 684" version="1.1" xmlns="http://www.w3.org/2000/svg" xmlns:xlink="http://www.w3.org/1999/xlink" xml:space="preserve" xmlns:serif="http://www.serif.com/" style="fill-rule:evenodd;clip-rule:evenodd;stroke-linejoin:round;stroke-miterlimit:2;"><g id="curvy-man"><g id="right-leg"><path id="outline" d="M260.417,494.792c-0,-1.727 -0.686,-3.383 -1.907,-4.604c-1.221,-1.221 -2.877,-1.907 -4.604,-1.907c-12.474,0 -39.609,0 -52.083,0c-1.727,0 -3.383,0.686 -4.604,1.907c-1.221,1.221 -1.906,2.877 -1.906,4.604c-0,29.745 -0,152.546 -0,182.291c-0,3.596 2.914,6.511 6.51,6.511c17.756,-0 66.879,-0 84.635,-0c1.727,-0 3.383,-0.686 4.604,-1.907c1.221,-1.221 1.907,-2.877 1.907,-4.604c-0,-12.474 -0,-39.609 -0,-52.083c-0,-1.727 -0.686,-3.383 -1.907,-4.604c-1.221,-1.221 -2.877,-1.906 -4.604,-1.906c-5.673,-0 -13.858,-0 -19.531,-0c-3.595,-0 -6.51,-2.915 -6.51,-6.511c-0,-22.226 -0,-94.961 -0,-117.187Z" style="fill:#272727;"/><path id="leg" d="M244.141,511.068c-0,-3.596 -2.915,-6.511 -6.511,-6.511c-5.673,0 -13.858,0 -19.531,0c-1.727,0 -3.383,0.686 -4.604,1.907c-1.221,1.221 -1.906,2.877 -1.906,4.604c-0,26.173 -0,123.566 -0,149.739c-0,1.727 0.685,3.383 1.906,4.604c1.221,1.221 2.877,1.907 4.604,1.907c12.474,-0 39.609,-0 52.083,-0c1.727,-0 3.383,-0.686 4.604,-1.907c1.221,-1.221 1.907,-2.877 1.907,-4.604c-0,-5.673 -0,-13.858 -0,-19.531c-0,-1.727 -0.686,-3.383 -1.907,-4.604c-1.221,-1.22 -2.877,-1.906 -4.604,-1.906c-5.673,-0 -13.858,-0 -19.531,-0c-3.596,-0 -6.51,-2.915 -6.51,-6.511c-0,-22.226 -0,-94.961 -0,-117.187Z" style="fill:#fff;"/></g><g id="left-leg"><path id="outline1" serif:id="outline" d="M130.208,494.792c0,-1.727 0.686,-3.383 1.907,-4.604c1.221,-1.221 2.877,-1.907 4.604,-1.907c12.474,0 39.609,0 52.083,0c1.727,0 3.383,0.686 4.604,1.907c1.221,1.221 1.906,2.877 1.907,4.604c-0,29.745 -0,152.546 -0,182.291c-0.001,3.596 -2.915,6.511 -6.511,6.511c-17.756,-0 -66.879,-0 -84.635,-0c-1.727,-0 -3.383,-0.686 -4.604,-1.907c-1.221,-1.221 -1.907,-2.877 -1.907,-4.604c0,-12.474 0,-39.609 0,-52.083c0,-1.727 0.686,-3.383 1.907,-4.604c1.221,-1.221 2.877,-1.906 4.604,-1.906c5.673,-0 13.858,-0 19.531,-0c3.595,-0 6.51,-2.915 6.51,-6.511c0,-22.226 0,-94.961 0,-117.187Z" style="fill:#272727;"/><path id="leg1" serif:id="leg" d="M146.484,511.068c0,-3.596 2.915,-6.511 6.511,-6.511c5.673,0 13.858,0 19.531,0c1.727,0 3.383,0.686 4.604,1.907c1.221,1.221 1.906,2.877 1.906,4.604c0,26.173 0,123.566 0,149.739c0,1.727 -0.685,3.383 -1.906,4.604c-1.221,1.221 -2.877,1.907 -4.604,1.907c-12.474,-0 -39.609,-0 -52.083,-0c-1.727,-0 -3.383,-0.686 -4.604,-1.907c-1.221,-1.221 -1.907,-2.877 -1.907,-4.604c0,-5.673 0,-13.858 0,-19.531c0,-1.727 0.686,-3.383 1.907,-4.604c1.221,-1.22 2.877,-1.906 4.604,-1.906l19.531,-0c3.596,-0 6.51,-2.915 6.51,-6.511c0,-22.226 0,-94.961 0,-117.187Z" style="fill:#fff;"/></g><g id="body"><path d="M260.417,266.927c-0,-3.595 -2.915,-6.51 -6.511,-6.51c-22.226,-0 -94.961,-0 -117.187,-0c-3.596,-0 -6.511,2.915 -6.511,6.51c0,33.032 0,181.812 0,214.844c0,3.595 2.915,6.51 6.511,6.51c22.226,0 94.961,0 117.187,0c3.596,0 6.511,-2.915 6.511,-6.51c-0,-33.032 -0,-181.812 -0,-214.844Z" style="fill:#272727;"/><path d="M244.141,283.203c-0,-3.595 -2.915,-6.51 -6.511,-6.51c-17.756,-0 -66.879,-0 -84.635,-0c-3.596,-0 -6.511,2.915 -6.511,6.51c0,29.745 0,152.547 0,182.292c0,3.595 2.915,6.51 6.511,6.51c17.756,0 66.879,0 84.635,0c3.596,0 6.511,-2.915 6.511,-6.51c-0,-29.745 -0,-152.547 -0,-182.292Z" style="fill:#fff;"/></g><g id="head"><path d="M97.656,136.719c0,-3.596 2.915,-6.511 6.511,-6.511c26.173,0 123.566,0 149.739,0c3.596,0 6.511,2.915 6.511,6.511c-0,22.226 -0,94.961 -0,117.187c-0,3.596 -2.915,6.511 -6.511,6.511c-26.173,-0 -123.566,-0 -149.739,-0c-3.596,-0 -6.511,-2.915 -6.511,-6.511c0,-22.226 0,-94.961 0,-117.187Z" style="fill:#272727;"/><path id="head1" serif:id="head" d="M244.141,152.995c-0,-3.596 -2.915,-6.511 -6.511,-6.511c-22.226,0 -94.961,0 -117.187,0c-3.596,0 -6.511,2.915 -6.511,6.511c0,17.756 0,66.879 0,84.635c0,3.596 2.915,6.511 6.511,6.511c22.226,-0 94.961,-0 117.187,-0c3.596,-0 6.511,-2.915 6.511,-6.511c-0,-17.756 -0,-66.879 -0,-84.635Z" style="fill:#fff;"/><g id="eyes"><path d="M146.484,185.547c0,-1.727 -0.686,-3.383 -1.906,-4.604c-1.221,-1.221 -2.877,-1.907 -4.604,-1.907c-5.673,0 -13.858,0 -19.531,0c-1.727,0 -3.383,0.686 -4.604,1.907c-1.221,1.221 -1.907,2.877 -1.907,4.604c0,5.673 0,13.858 0,19.531c0,1.727 0.686,3.383 1.907,4.604c1.221,1.221 2.877,1.907 4.604,1.907l19.531,-0c1.727,-0 3.383,-0.686 4.604,-1.907c1.22,-1.221 1.906,-2.877 1.906,-4.604l0,-19.531Z" style="fill:#272727;"/><path d="M211.589,185.547c-0,-1.727 -0.686,-3.383 -1.907,-4.604c-1.221,-1.221 -2.877,-1.907 -4.604,-1.907c-5.673,0 -13.858,0 -19.531,0c-1.727,0 -3.383,0.686 -4.604,1.907c-1.221,1.221 -1.907,2.877 -1.907,4.604c0,5.673 0,13.858 0,19.531c0,1.727 0.686,3.383 1.907,4.604c1.221,1.221 2.877,1.907 4.604,1.907c5.673,-0 13.858,-0 19.531,-0c1.727,-0 3.383,-0.686 4.604,-1.907c1.221,-1.221 1.907,-2.877 1.907,-4.604l-0,-19.531Z" style="fill:#272727;"/></g></g><g id="left-arm"><path id="outline2" serif:id="outline" d="M0,253.906c-0,1.727 0.686,3.383 1.907,4.604c1.221,1.221 2.877,1.907 4.603,1.907c5.674,-0 13.858,-0 19.532,-0c1.726,-0 3.382,0.686 4.603,1.907c1.221,1.22 1.907,2.876 1.907,4.603c0,5.673 0,13.858 0,19.531c0,1.727 0.686,3.383 1.907,4.604c1.221,1.221 2.877,1.907 4.604,1.907c12.474,-0 39.609,-0 52.083,-0c1.726,-0 3.382,-0.686 4.603,-1.907c1.221,-1.221 1.907,-2.877 1.907,-4.604c0,-29.745 0,-152.546 0,-182.291c0,-1.727 0.686,-3.383 1.907,-4.604c1.221,-1.221 2.877,-1.907 4.604,-1.907c12.474,0 39.609,0 52.083,0c1.727,0 3.383,0.686 4.604,1.907c1.221,1.221 1.906,2.877 1.906,4.604c0,5.673 0,13.858 0,19.531c0,1.727 0.686,3.383 1.907,4.603c1.221,1.221 2.877,1.907 4.604,1.907c12.474,0 39.609,0 52.083,0c1.727,0 3.383,-0.686 4.604,-1.907c1.221,-1.22 1.907,-2.876 1.907,-4.603c-0,-5.673 -0,-13.858 -0,-19.531c-0,-1.727 0.685,-3.383 1.906,-4.604c1.221,-1.221 2.877,-1.907 4.604,-1.907c12.474,0 39.609,0 52.083,0c1.727,0 3.383,-0.686 4.604,-1.907c1.221,-1.221 1.907,-2.877 1.907,-4.603l-0,-52.083c-0,-1.727 -0.686,-3.383 -1.907,-4.604c-1.221,-1.221 -2.877,-1.907 -4.604,-1.907c-5.673,0 -13.858,0 -19.531,0c-1.727,0 -3.383,-0.686 -4.603,-1.907c-1.221,-1.221 -1.907,-2.877 -1.907,-4.603c-0,-5.674 -0,-13.858 -0,-19.532c-0,-1.726 -0.686,-3.382 -1.907,-4.603c-1.221,-1.221 -2.877,-1.907 -4.604,-1.907c-36.093,0 -211.302,0 -247.396,0c-1.726,-0 -3.382,0.686 -4.603,1.907c-1.221,1.221 -1.907,2.877 -1.907,4.603l0,247.396Z" style="fill:#272727;"/><path id="arm" d="M218.099,81.38c-1.727,0 -3.383,0.686 -4.604,1.907c-1.221,1.221 -1.906,2.877 -1.906,4.604c-0,5.673 -0,13.858 -0,19.531c-0,1.727 -0.686,3.382 -1.907,4.603c-1.221,1.221 -2.877,1.907 -4.604,1.907c-5.673,0 -13.858,0 -19.531,0c-1.727,0 -3.383,-0.686 -4.604,-1.907c-1.221,-1.221 -1.907,-2.876 -1.907,-4.603c0,-5.673 0,-13.858 0,-19.531c0,-1.727 -0.685,-3.383 -1.906,-4.604c-1.221,-1.221 -2.877,-1.907 -4.604,-1.907c-17.756,0 -66.879,0 -84.635,0c-3.596,0 -6.511,2.915 -6.511,6.511c0,29.744 0,152.546 0,182.291c0,3.596 -2.915,6.511 -6.51,6.511c-5.673,-0 -13.858,-0 -19.531,-0c-1.727,-0 -3.383,-0.686 -4.604,-1.907c-1.221,-1.221 -1.907,-2.877 -1.907,-4.604c0,-5.673 0,-13.858 0,-19.531c0,-1.727 -0.686,-3.383 -1.907,-4.604c-1.221,-1.22 -2.877,-1.906 -4.603,-1.906l-19.532,-0c-1.726,-0 -3.382,-0.686 -4.603,-1.907c-1.221,-1.221 -1.907,-2.877 -1.907,-4.604c0,-33.032 0,-181.811 0,-214.844c0,-1.726 0.686,-3.382 1.907,-4.603c1.221,-1.221 2.877,-1.907 4.603,-1.907l214.844,0c1.727,0 3.383,0.686 4.604,1.907c1.221,1.221 1.907,2.877 1.907,4.603c-0,5.674 -0,13.858 -0,19.532c-0,1.726 0.686,3.382 1.906,4.603c1.221,1.221 2.877,1.907 4.604,1.907c5.673,0 13.858,0 19.531,0c1.727,0 3.383,0.686 4.604,1.907c1.221,1.221 1.907,2.877 1.907,4.604c-0,5.673 -0,13.858 -0,19.531c-0,1.726 -0.686,3.382 -1.907,4.603c-1.221,1.221 -2.877,1.907 -4.604,1.907c-12.474,0 -39.609,0 -52.083,0Z" style="fill:#fff;"/></g><g id="right-arm"><path id="outline3" serif:id="outline" d="M358.073,266.927c-0,-1.727 -0.686,-3.383 -1.907,-4.603c-1.221,-1.221 -2.877,-1.907 -4.604,-1.907c-5.673,-0 -13.858,-0 -19.531,-0c-1.726,-0 -3.382,-0.686 -4.603,-1.907c-1.221,-1.221 -1.907,-2.877 -1.907,-4.604c-0,-5.673 -0,-13.858 -0,-19.531c-0,-1.727 -0.686,-3.383 -1.907,-4.604c-1.221,-1.221 -2.877,-1.906 -4.604,-1.906c-12.474,-0 -39.609,-0 -52.083,-0c-1.727,-0 -3.382,0.685 -4.603,1.906c-1.221,1.221 -1.907,2.877 -1.907,4.604c-0,29.745 -0,152.547 -0,182.292c-0,1.726 -0.686,3.382 -1.907,4.603c-1.221,1.221 -2.877,1.907 -4.604,1.907c-12.474,0 -39.609,0 -52.083,0c-1.727,0 -3.383,-0.686 -4.604,-1.907c-1.221,-1.221 -1.907,-2.877 -1.906,-4.603c-0,-5.674 -0,-13.858 -0,-19.532c-0,-1.726 -0.686,-3.382 -1.907,-4.603c-1.221,-1.221 -2.877,-1.907 -4.604,-1.907c-12.474,0 -39.609,0 -52.083,0c-1.727,-0 -3.383,0.686 -4.604,1.907c-1.221,1.221 -1.907,2.877 -1.907,4.603c0,5.674 0,13.858 0,19.532c0,1.726 -0.686,3.382 -1.907,4.603c-1.22,1.221 -2.876,1.907 -4.603,1.907c-12.474,0 -39.609,0 -52.083,0c-1.727,0 -3.383,0.686 -4.604,1.907c-1.221,1.221 -1.907,2.877 -1.907,4.604l0,52.083c0,1.726 0.686,3.382 1.907,4.603c1.221,1.221 2.877,1.907 4.604,1.907c5.673,0 13.858,0 19.531,0c1.726,0 3.382,0.686 4.603,1.907c1.221,1.221 1.907,2.877 1.907,4.604c0,5.673 0,13.858 0,19.531c0,1.727 0.686,3.383 1.907,4.603c1.221,1.221 2.877,1.907 4.604,1.907c36.093,0 211.302,0 247.395,0c1.727,0 3.383,-0.686 4.604,-1.907c1.221,-1.22 1.907,-2.876 1.907,-4.603l-0,-247.396Z" style="fill:#272727;"/><path id="arm1" serif:id="arm" d="M139.974,439.453c1.727,0 3.383,-0.686 4.604,-1.907c1.22,-1.221 1.906,-2.877 1.906,-4.603c0,-5.674 0,-13.858 0,-19.532c0,-1.726 0.686,-3.382 1.907,-4.603c1.221,-1.221 2.877,-1.907 4.604,-1.907c5.673,0 13.858,0 19.531,0c1.727,0 3.383,0.686 4.604,1.907c1.221,1.221 1.906,2.877 1.906,4.603c0,5.674 0,13.858 0,19.532c0,1.726 0.686,3.382 1.907,4.603c1.221,1.221 2.877,1.907 4.604,1.907c17.756,0 66.879,0 84.635,0c3.596,0 6.511,-2.915 6.511,-6.51c-0,-29.745 -0,-152.547 -0,-182.292c-0,-3.596 2.915,-6.51 6.51,-6.51c5.673,-0 13.858,-0 19.531,-0c1.727,-0 3.383,0.686 4.604,1.906c1.221,1.221 1.907,2.877 1.907,4.604c-0,5.673 -0,13.858 -0,19.531c-0,1.727 0.686,3.383 1.907,4.604c1.221,1.221 2.877,1.907 4.603,1.907l19.531,-0c1.727,-0 3.383,0.686 4.604,1.907c1.221,1.221 1.907,2.876 1.907,4.603c-0,33.032 -0,181.812 -0,214.844c-0,1.727 -0.686,3.382 -1.907,4.603c-1.221,1.221 -2.877,1.907 -4.604,1.907l-214.843,0c-1.727,0 -3.383,-0.686 -4.604,-1.907c-1.221,-1.221 -1.907,-2.876 -1.907,-4.603c0,-5.673 0,-13.858 0,-19.531c0,-1.727 -0.686,-3.383 -1.907,-4.604c-1.221,-1.221 -2.876,-1.907 -4.603,-1.907c-5.673,0 -13.858,0 -19.531,0c-1.727,0 -3.383,-0.686 -4.604,-1.907c-1.221,-1.221 -1.907,-2.877 -1.907,-4.603c0,-5.673 0,-13.858 0,-19.531c0,-1.727 0.686,-3.383 1.907,-4.604c1.221,-1.221 2.877,-1.907 4.604,-1.907c12.474,0 39.609,0 52.083,0Z" style="fill:#fff;"/></g></g></svg>