<?xml version="1.0" encoding="UTF-8" standalone="no"?><!DOCTYPE svg PUBLIC "-//W3C//DTD SVG 1.1//EN" "http://www.w3.org/Graphics/SVG/1.1/DTD/svg11.dtd"><svg width="100%" height="100%" viewBox="0 0 160 160" version="1.1" xmlns="http://www.w3.org/2000/svg" xmlns:xlink="http://www.w3.org/1999/xlink" xml:space="preserve" xmlns:serif="http://www.serif.com/" style="fill-rule:evenodd;clip-rule:evenodd;stroke-linejoin:round;stroke-miterlimit:2;"><path id="js" d="M72.688,93.981c-0,14.76 -8.666,21.496 -21.293,21.496c-11.409,0 -18.01,-5.89 -21.395,-13.033l11.611,-7.007c2.235,3.96 4.266,7.312 9.174,7.312c4.672,-0 7.651,-1.828 7.651,-8.971l0,-48.443l14.252,0l-0,48.646Zm33.717,21.496c-13.236,0 -21.801,-6.296 -25.965,-14.556l11.611,-6.703c3.047,4.976 7.042,8.666 14.049,8.666c5.891,0 9.682,-2.945 9.682,-7.041c-0,-4.875 -3.859,-6.601 -10.393,-9.479l-3.554,-1.523c-10.291,-4.367 -17.096,-9.885 -17.096,-21.496c0,-10.698 8.159,-18.822 20.853,-18.822c9.073,-0 15.573,3.148 20.244,11.408l-11.103,7.109c-2.438,-4.367 -5.078,-6.093 -9.174,-6.093c-4.164,-0 -6.805,2.64 -6.805,6.093c0,4.265 2.641,5.992 8.768,8.666l3.555,1.524c12.119,5.179 18.923,10.494 18.923,22.41c0,12.796 -10.088,19.837 -23.595,19.837Z" style="fill-rule:nonzero;"/></svg>